<?xml version="1.0" encoding="UTF-8"?>
<svg width="28px" height="14px" viewBox="0 0 28 14" version="1.1" xmlns="http://www.w3.org/2000/svg" xmlns:xlink="http://www.w3.org/1999/xlink">
    <!-- Generator: Sketch 40.2 (33826) - http://www.bohemiancoding.com/sketch -->
    <title>500px</title>
    <desc>Created with Sketch.</desc>
    <defs></defs>
    <g id="Current" stroke="none" stroke-width="1" fill="none" fill-rule="evenodd">
        <g id="Home" transform="translate(-474.000000, -1090.000000)" fill="#444444">
            <g id="Sect3-Online" transform="translate(166.000000, 1085.000000)">
                <g id="500px" transform="translate(308.000000, 5.000000)">
                    <path fill="#fff" d="M25.0026674,7.25369127 C24.6304186,6.79945423 24.1243728,6.57192737 23.4845814,6.57192737 C23.1382771,6.57192737 22.8053834,6.64945746 22.4854362,6.80370096 C22.1651279,6.95838003 21.8626145,7.1539475 21.5771223,7.39002227 C21.2916817,7.62647816 21.0192391,7.88552884 20.7596914,8.16722875 C20.5001953,8.44925535 20.2666436,8.70830603 20.0590363,8.9443808 C20.2836648,9.2170428 20.5261397,9.48551251 20.7856359,9.74886437 C21.0451836,10.0125429 21.3217009,10.2490532 21.6160648,10.4577965 C21.910016,10.6670297 22.2169652,10.8353745 22.5373251,10.9623409 C22.8572208,11.0897429 23.1990377,11.1532261 23.5623632,11.1532261 C24.2022577,11.1532261 24.6953055,10.9350639 25.0416099,10.4987393 C25.38745,10.0624148 25.5606537,9.52640092 25.5606537,8.88982662 C25.5606537,8.25368787 25.374452,7.70830942 25.0026674,7.25369127 L25.0026674,7.25369127 Z M16.2183284,8.16722875 C15.9412952,7.88552884 15.6514188,7.62647816 15.3489054,7.39002227 C15.046031,7.1539475 14.7301585,6.95838003 14.4017006,6.80370096 C14.0728817,6.64945746 13.7440113,6.57192737 13.415605,6.57192737 C12.8098045,6.57192737 12.3297031,6.81312 11.9753008,7.29452523 C11.6204859,7.77647492 11.4433105,8.31717108 11.4433105,8.91710371 C11.4433105,9.57159051 11.6249733,10.1079855 11.9882988,10.5260164 C12.3516244,10.9444284 12.8531828,11.1532261 13.4934384,11.1532261 C13.8218962,11.1532261 14.1507667,11.0850606 14.4795856,10.9486752 C14.8080434,10.8123442 15.1194285,10.6397526 15.4137923,10.4305738 C15.7077951,10.2217761 15.9847251,9.98526581 16.2442728,9.72158728 C16.503769,9.45823542 16.7373207,9.19918474 16.9449279,8.9443808 C16.7373207,8.70830603 16.4948457,8.44925535 16.2183284,8.16722875 L16.2183284,8.16722875 Z M27.6885634,10.7986784 C27.4809561,11.4169047 27.1865923,11.9576553 26.8062455,12.4212569 C26.4254861,12.8848041 25.9539469,13.2486619 25.3919374,13.5120138 C24.8295152,13.7757468 24.2022577,13.9073955 23.5105259,13.9073955 C22.9740482,13.9073955 22.4724897,13.8213175 22.0053348,13.6483448 C21.5382314,13.4758077 21.1011473,13.2486619 20.6948045,12.9665809 C20.2881006,12.6849354 19.903318,12.3577737 19.5399925,11.9849323 C19.1766669,11.6125266 18.8304142,11.2260195 18.5019563,10.8259555 C18.1386308,11.2260195 17.7838674,11.6125266 17.4379757,11.9849323 C17.0916714,12.3577737 16.7243227,12.6849354 16.3350526,12.9665809 C15.9457826,13.2486619 15.5216965,13.4758077 15.0634648,13.6483448 C14.6048205,13.8213175 14.0903156,13.9073955 13.5193828,13.9073955 C12.8098045,13.9073955 12.1784722,13.7757468 11.6249733,13.5120138 C11.0711133,13.2486619 10.5954477,12.8941687 10.1976671,12.448534 C9.8315563,12.0391054 9.54657991,11.5563935 9.34160324,11.0007249 C9.33562002,11.0151529 9.32984312,11.0297442 9.32365359,11.0441178 C9.06204269,11.6527616 8.70996146,12.179792 8.26797728,12.6246645 C7.82568361,13.0698092 7.31184927,13.4133589 6.72647425,13.6554771 C6.14084133,13.8974864 5.5181228,14.011876 4.85800918,13.9990269 C4.22275685,13.9990269 3.61551215,13.9106622 3.03627508,13.7339872 C2.45703801,13.5572578 1.94320367,13.2857936 1.49477206,12.919159 C1.04634044,12.5529056 0.688121256,12.0979063 0.420423983,11.5545968 C0.152417233,11.0116139 0.0122759058,10.3799397 0,9.65995521 L2.65324619,9.65995521 C2.71539941,10.2881994 2.93961522,10.7888783 3.32589361,11.1619374 C3.71181095,11.534942 4.20403351,11.7214716 4.80199391,11.7214716 C5.15051616,11.7214716 5.46525388,11.6463371 5.74553654,11.4957414 C6.02581919,11.3453635 6.26231091,11.1490338 6.45557905,10.9066434 C6.64853772,10.6646341 6.79801493,10.3833153 6.90401067,10.0624148 C7.00964535,9.74184093 7.06282375,9.41141248 7.06282375,9.0708572 C7.06282375,8.71745283 7.01289486,8.38370322 6.91334655,8.06955391 C6.81348876,7.7554046 6.66401155,7.48056478 6.46491493,7.24492558 C6.26550883,7.00934082 6.02870764,6.82618687 5.75487241,6.6951915 C5.48072771,6.56452281 5.16310155,6.4988618 4.80199391,6.4988618 C4.32844311,6.4988618 3.94247419,6.5872265 3.64351978,6.76390146 C3.34456537,6.94063086 3.06428271,7.21890073 2.80272339,7.59838439 L0.411088105,7.59838439 L1.70031611,0 L9.00597585,0 L9.00597585,2.29715559 L3.60617627,2.29715559 L3.08295447,5.41899396 L3.12034956,5.45824901 C3.48150877,5.07876535 3.86773559,4.8072467 4.27882369,4.64347527 C4.68986022,4.47992163 5.15696359,4.39803592 5.68013381,4.39803592 C6.32766205,4.39803592 6.90081274,4.52255229 7.39912168,4.77104058 C7.89717271,5.01985555 8.31759669,5.35365961 8.66034205,5.77239832 C8.91627921,6.08556762 9.12703278,6.44060534 9.29260277,6.83767482 C9.49071939,6.24912126 9.77507682,5.73782556 10.1457782,5.30389662 C10.526125,4.85864305 10.9932284,4.50414978 11.5471399,4.24041681 C12.1006388,3.97706495 12.723409,3.84498068 13.415605,3.84498068 C13.9865378,3.84498068 14.5096048,3.93617654 14.9856314,4.11769713 C15.4612454,4.29965328 15.9024559,4.5403559 16.3091082,4.84034943 C16.7153994,5.14028853 17.0961588,5.48585277 17.4509222,5.87655215 C17.8053245,6.26774155 18.155652,6.68098128 18.5019563,7.11736027 C18.8304142,6.69932935 19.1722311,6.2902819 19.5269945,5.89021792 C19.8813968,5.49053506 20.2621562,5.14028853 20.66886,4.84034943 C21.0751512,4.5403559 21.5163102,4.29965328 21.9923883,4.11769713 C22.4680023,3.93617654 22.9825588,3.84498068 23.5364188,3.84498068 C24.2282022,3.84498068 24.8510239,3.97238265 25.4048838,4.22675104 C25.9583828,4.48155499 26.4254861,4.83136596 26.8062455,5.27661953 C27.1865923,5.72230865 27.4809561,6.24471119 27.6885634,6.84464382 C27.8961706,7.444522 28,8.09900881 28,8.80799535 C28,9.51703633 27.8961706,10.1808333 27.6885634,10.7986784 L27.6885634,10.7986784 Z" id="Shape"></path>
                </g>
            </g>
        </g>
    </g>
</svg>
