<svg xmlns="http://www.w3.org/2000/svg" width="457" height="457" viewBox="0 0 457 457" xmlns:xlink="http://www.w3.org/1999/xlink"><defs><path id="a" d="M0 456.94h456.28V.722H0z"/></defs><g  fill-rule="evenodd"><mask id="b" ><use xlink:href="#a"/></mask><path fill="#fff" d="M228.14.72c-61.96 0-69.728.26-94.06 1.373-24.285 1.11-40.87 4.965-55.38 10.604-15.002 5.83-27.725 13.63-40.408 26.314S17.808 64.42 11.98 79.42c-5.643 14.512-9.5 31.096-10.606 55.38C.264 159.13 0 166.9 0 228.86s.263 69.728 1.374 94.06c1.106 24.285 4.963 40.87 10.606 55.38 5.828 15.002 13.63 27.726 26.312 40.41 12.683 12.682 25.406 20.483 40.41 26.313 14.51 5.64 31.093 9.495 55.377 10.604 24.33 1.11 32.1 1.373 94.06 1.373s69.73-.263 94.06-1.373c24.28-1.11 40.863-4.965 55.38-10.604 15-5.83 27.72-13.63 40.402-26.314S438.47 393.3 444.3 378.3c5.64-14.513 9.498-31.097 10.606-55.38 1.11-24.333 1.372-32.1 1.372-94.06s-.262-69.73-1.373-94.06c-1.108-24.285-4.964-40.87-10.605-55.38-5.83-15.003-13.63-27.727-26.314-40.41-12.683-12.683-25.405-20.484-40.408-26.314-14.51-5.64-31.095-9.495-55.378-10.604C297.87.98 290.1.72 228.14.72m0 41.106c60.916 0 68.13.232 92.188 1.33 22.243 1.014 34.323 4.732 42.362 7.855 10.65 4.14 18.25 9.09 26.232 17.07 7.985 7.987 12.93 15.586 17.066 26.23 3.123 8.04 6.84 20.12 7.856 42.36 1.097 24.06 1.33 31.278 1.33 92.19s-.233 68.13-1.33 92.19c-1.015 22.246-4.733 34.327-7.856 42.366-4.137 10.65-9.08 18.25-17.066 26.234-7.982 7.982-15.582 12.926-26.232 17.064-8.04 3.124-20.12 6.84-42.362 7.855-24.054 1.1-31.267 1.33-92.188 1.33-60.92 0-68.134-.23-92.188-1.33-22.242-1.015-34.323-4.73-42.362-7.857-10.65-4.14-18.25-9.083-26.232-17.066-7.982-7.984-12.926-15.584-17.065-26.232-3.124-8.038-6.84-20.12-7.857-42.363-1.096-24.057-1.33-31.27-1.33-92.19 0-60.916.234-68.13 1.33-92.19 1.016-22.24 4.733-34.32 7.857-42.36 4.14-10.65 9.083-18.25 17.065-26.232C75.34 60.095 82.94 55.15 93.59 51.01c8.04-3.122 20.12-6.84 42.362-7.855 24.058-1.097 31.272-1.33 92.188-1.33" mask="url(#b)"/><path d="M228.14 304.906c-42 0-76.047-34.047-76.047-76.047s34.048-76.05 76.047-76.05c42 0 76.047 34.044 76.047 76.043 0 42-34.047 76.046-76.047 76.046m0-193.2c-64.7 0-117.152 52.453-117.152 117.153 0 64.702 52.45 117.152 117.152 117.152 64.7 0 117.152-52.45 117.152-117.154 0-64.7-52.45-117.152-117.152-117.152m149.16-4.626c0 15.12-12.258 27.377-27.378 27.377-15.12 0-27.377-12.258-27.377-27.377 0-15.12 12.258-27.377 27.377-27.377 15.12 0 27.377 12.26 27.377 27.38"/></g></svg>
