<svg xmlns="http://www.w3.org/2000/svg" width="458" height="460" viewBox="0 0 458 460"><path fill="#fff" fill-rule="evenodd" d="M229.38.6C103.116.6.76 104.38.76 230.654.75 349.3 91.11 445.076 206.77 459.6h45.216c115.66-14.524 206.02-110.3 206.02-228.954C458.01 104.38 355.646.6 229.39.6h-.008zm104.848 329.76a14.237 14.237 0 0 1-19.595 4.734c-53.69-32.812-121.26-40.22-200.842-22.042-3.68.847-7.55.195-10.75-1.813-3.2-2.01-5.47-5.21-6.31-8.9a14.27 14.27 0 0 1 1.82-10.76c2.01-3.2 5.21-5.47 8.9-6.31 87.09-19.9 161.79-11.33 222.06 25.49 6.71 4.11 8.82 12.88 4.72 19.59l.01-.007zm27.975-62.255c-5.15 8.385-16.12 11.012-24.51 5.868-61.44-37.764-155.127-48.71-227.823-26.638-9.42 2.843-19.365-2.466-22.245-11.874-2.833-9.44 2.47-19.36 11.888-22.22 83.046-25.2 186.267-13 256.836 30.36 8.38 5.16 11 16.13 5.86 24.51h-.01zm2.41-64.824c-73.698-43.76-195.257-47.78-265.608-26.43-11.303 3.43-23.242-2.96-26.668-14.26-3.425-11.3 2.96-23.24 14.264-26.66 80.76-24.51 215.02-19.775 299.86 30.575a21.365 21.365 0 0 1 9.81 13.103 21.322 21.322 0 0 1-2.33 16.2 21.355 21.355 0 0 1-29.303 7.48l-.006.008z"/></svg>