<svg width="34" height="34" viewBox="0 0 34 34" xmlns="http://www.w3.org/2000/svg" xmlns:xlink="http://www.w3.org/1999/xlink"><title>mail</title><defs><circle id="a" cx="17" cy="17" r="17"/><mask id="b" x="0" y="0" width="34" height="34" fill="#fff"><use xlink:href="#a"/></mask></defs><g fill="none" fill-rule="evenodd"><path fill="#fff" d="M0 0h34v34H0z"/><use stroke="#FFF" mask="url(#b)" stroke-width="4" xlink:href="#a"/><path d="M10.132 14.63c.215.14.863.557 1.944 1.25 1.082.694 1.91 1.228 2.486 1.603.063.04.197.13.403.268.206.137.376.249.512.333.136.085.3.18.494.286.193.105.374.184.545.237.17.052.329.079.474.079h.02c.145 0 .303-.027.474-.08.17-.052.353-.131.545-.236.193-.106.358-.2.494-.286.136-.084.306-.196.512-.333.205-.138.34-.227.403-.268l4.44-2.854a4.352 4.352 0 0 0 1.157-1.08c.31-.421.465-.863.465-1.326 0-.386-.15-.717-.45-.992a1.527 1.527 0 0 0-1.068-.413H10.018c-.487 0-.862.152-1.124.457-.263.304-.394.685-.394 1.141 0 .37.174.769.522 1.199.348.43.718.768 1.11 1.014zm14.42.939c-2.075 1.3-3.65 2.31-4.725 3.03-.36.245-.653.437-.877.574a5.59 5.59 0 0 1-.897.422 2.92 2.92 0 0 1-1.043.215h-.02a2.92 2.92 0 0 1-1.043-.215 5.595 5.595 0 0 1-.897-.422c-.224-.137-.517-.329-.877-.575-.854-.58-2.425-1.59-4.715-3.03a4.943 4.943 0 0 1-.958-.763v6.972c0 .386.149.717.446.992.297.275.654.413 1.072.413h13.964c.418 0 .775-.138 1.072-.413.298-.275.446-.606.446-.992v-6.972c-.272.28-.588.535-.949.764z" fill="#F7F7F7"/></g></svg>
