<?xml version="1.0" encoding="utf-8"?>
<!-- Generator: Adobe Illustrator 17.1.0, SVG Export Plug-In . SVG Version: 6.00 Build 0)  -->
<!DOCTYPE svg PUBLIC "-//W3C//DTD SVG 1.1//EN" "http://www.w3.org/Graphics/SVG/1.1/DTD/svg11.dtd">
<svg version="1.1" id="Layer_1" xmlns="http://www.w3.org/2000/svg" xmlns:xlink="http://www.w3.org/1999/xlink" x="0px" y="0px"
	 viewBox="-21 237 654 310" style="enable-background:new -21 237 654 310;" xml:space="preserve">
<style type="text/css">
	.st0{fill:#95A0A9;}
</style>
<path class="st0" d="M612,348.3v-41.8h-34.3v-48.8h-41.8v48.8h-84.3c-38.9,0-67.4,26.2-67.4,62.2c0,4.1,0.6,8.1,1.2,12.2
	c-12.8-45.3-48.2-74.4-95.3-74.4c-57.5,0-101.7,44.8-105.2,105.2v-12.8c0-51.1-41.3-92.4-92.4-92.4S0,348.3,0,399.5V532h42.4V399.5
	c0-27.9,22.7-50,50-50c27.9,0,50,22.7,50,50V532h42.4V428.5c3.5,61,48.2,105.8,106.4,105.8c35.5,0,66.8-20.9,84.9-44.8
	c13.4,28.5,38.9,44.8,70.9,44.8c37.2,0,74.4-23.8,74.4-69.2c0-27.3-15.7-49.4-44.2-62.2c-3.5-1.7-6.4-2.9-9.3-4.6h-0.6
	c-3.5-1.7-6.4-2.9-9.9-4.6c-18-8.1-27.3-14.5-27.3-26.7c0-11,9.9-18.6,21.5-18.6c1.7,0,73.8,0,84.3,0v118c0,37.8,30.8,68,68,68
	v-41.8c-14.5,0-26.2-11.6-26.2-26.2v-118C594.6,348.3,607.9,348.3,612,348.3z M290,347.8c33.1,0,48.8,22.7,53.5,45.9H234.2
	C240,369.8,260.4,347.8,290,347.8z M457.4,443.7c11.6,5.2,18.6,14.5,18.6,25.6c0,14.5-11,22.7-29.6,22.7
	c-19.8,0-28.5-17.4-30.8-22.7l-2.9-6.4H376h-34.3c-9.3,15.7-27.9,29.6-50,29.6c-39.5,0-58.7-30.8-61.6-61h160.4v-6.4
	c0-12.8-1.2-24.4-3.5-35.5c4.6,13.9,15.1,28.5,37.2,38.9C433,432.6,444.6,438.4,457.4,443.7z"/>
</svg>
