<svg width="34" height="34" viewBox="0 0 34 34" xmlns="http://www.w3.org/2000/svg" xmlns:xlink="http://www.w3.org/1999/xlink"><defs><circle id="a" cx="17" cy="17" r="17"/></defs><g fill="none" fill-rule="evenodd"><mask id="b" fill="#FFF"><use xlink:href="#a"/></mask><circle stroke="#FFF" stroke-width="4" mask="url(#b)" cx="17" cy="17" r="17"/><g fill-rule="nonzero" fill="#FFF" mask="url(#b)"><path d="M24.546 12.231h-2.92l-1.749-1.785s-.008-.009-.013-.009l-.008-.008A1.408 1.408 0 0 0 18.848 10h-3.635c-.424 0-.8.184-1.064.477v.004l-1.71 1.75H9.454c-.805 0-1.454.639-1.454 1.453v8.842C8 23.339 8.649 24 9.454 24h15.092c.8 0 1.454-.66 1.454-1.474v-8.842c0-.814-.653-1.453-1.454-1.453zM17 21.791c-2.202 0-3.998-1.82-3.998-4.052 0-2.235 1.796-4.05 3.998-4.05 2.207 0 3.998 1.815 3.998 4.05 0 2.232-1.791 4.052-3.998 4.052zm7.274-7.22a.612.612 0 0 1-.606-.616c0-.341.272-.617.606-.617.333 0 .605.276.605.617a.612.612 0 0 1-.605.617z"/><path d="M17 14.677c-1.67 0-3.02 1.37-3.02 3.062 0 1.69 1.35 3.063 3.02 3.063 1.666 0 3.02-1.37 3.02-3.063s-1.354-3.062-3.02-3.062z"/></g></g></svg>
