<svg width="34" height="34" viewBox="0 0 34 34" xmlns="http://www.w3.org/2000/svg" xmlns:xlink="http://www.w3.org/1999/xlink"><defs><circle id="a" cx="17" cy="17" r="17"/><circle id="c" cx="17" cy="17" r="17"/></defs><g fill="none" fill-rule="evenodd"><mask id="b" fill="#fff"><use xlink:href="#a"/></mask><circle stroke="#FFF" stroke-width="4" mask="url(#b)" cx="17" cy="17" r="17"/><mask id="d" fill="#fff"><use xlink:href="#c"/></mask><g mask="url(#d)" fill="#FFF"><path d="M16.995 8.023c-4.951 0-8.965 4.061-8.965 9.003 0 4.642 3.543 8.39 8.079 8.958h1.773c4.535-.568 8.079-4.316 8.079-8.959 0-4.94-4.014-9.002-8.965-9.002zm4.112 12.904a.558.558 0 0 1-.768.185c-2.106-1.284-4.756-1.573-7.877-.862a.559.559 0 0 1-.597-.84.558.558 0 0 1 .349-.247c3.415-.779 6.344-.444 8.708.997.263.161.346.504.185.767zm1.097-2.436a.7.7 0 0 1-.961.23c-2.41-1.478-6.084-1.906-8.934-1.043a.697.697 0 0 1-.406-1.334c3.256-.986 7.304-.508 10.071 1.188a.697.697 0 0 1 .23.96zm.095-2.537c-2.89-1.712-7.658-1.87-10.416-1.034a.836.836 0 1 1-.486-1.601c3.166-.959 8.431-.774 11.758 1.196a.836.836 0 1 1-.855 1.44h-.001z"/></g></g></svg>
