<svg xmlns="http://www.w3.org/2000/svg" width="21" height="18" viewBox="0 0 21 18"><path fill="#505050" fill-rule="evenodd" d="M18.526 2.846c.89-.562 1.573-1.452 1.893-2.513-.835.52-1.756.898-2.738 1.102C16.9.55 15.78 0 14.54 0c-2.38 0-4.308 2.035-4.308 4.544 0 .356.036.703.11 1.034-3.58-.19-6.754-1.996-8.88-4.747-.37.675-.583 1.455-.583 2.287 0 1.576.76 2.967 1.915 3.783-.707-.024-1.37-.23-1.953-.57v.057c0 2.202 1.484 4.04 3.458 4.455-.362.107-.74.16-1.136.16-.277 0-.548-.027-.81-.08.548 1.804 2.14 3.12 4.025 3.155-1.478 1.22-3.335 1.944-5.353 1.944-.348 0-.69-.017-1.028-.06C1.906 17.247 4.17 18 6.603 18 14.53 18 18.86 11.076 18.86 5.07c0-.196 0-.393-.01-.586.842-.64 1.574-1.442 2.15-2.353-.773.363-1.604.608-2.474.717z"/></svg>
